<svg width="489" height="425" viewBox="0 0 489 425" fill="none" xmlns="http://www.w3.org/2000/svg">
<path d="M167.24 4.12943C186.334 -4.34453 207.448 1.46797 225.511 10.3638C245.667 20.8951 266.256 36.218 274.526 60.2701C278.235 70.0878 275.802 81.5409 269.427 89.2336C264.412 93.994 257.282 92.6659 251.271 91.994C237.631 88.7336 229.276 75.244 218.683 66.4107C209.49 57.4159 199.709 47.6815 187.271 45.1919C176.177 43.1555 166.542 51.3169 159.427 59.7857C148.724 74.4628 141.964 92.1034 136.693 109.916C133.271 125.447 125.985 140.27 126.86 156.666C125.818 141.541 121.938 126.822 121.568 111.629C120.87 92.0357 123.11 72.3326 127.532 53.3898C135.651 33.0878 148.193 12.994 167.24 4.12943Z" fill="black"/>
<path d="M341.354 17.119C355.182 15.3325 369.714 21.3638 378.99 32.9367C385.287 41.5513 389.516 52.4054 389.448 63.6138C388.224 77.244 382.057 90.7127 371.76 98.5461C359.625 108.114 343.037 110.103 329.38 103.473C309.094 94.9054 297.281 65.869 307.708 43.9367C313.573 29.0148 327.104 19.3065 341.354 17.1138V17.119Z" fill="black"/>
<path d="M485.276 96.3482C486.089 96.3013 486.917 96.2752 487.75 96.2961C487.407 104.379 489.302 112.458 488.099 120.51C486.183 134.359 481.167 147.359 475.735 159.9C463.802 189.489 441.24 213.926 413.886 225.432C401.328 230.353 386.427 229.973 375.11 221.567C356.813 208.286 342.417 188.02 336.12 164.629C332.136 151.999 332 136.827 338.849 125.379C342.276 120.364 346.907 114.76 353.094 115.135C359.49 115.796 365.209 120.067 369.068 125.629C378.162 138.905 380.068 156.166 387.563 170.338C393.834 179.478 403.979 190.333 415.188 184.989C428.698 178.635 440.073 167.833 451.058 157.239C464.948 143.952 474.615 126.223 482.334 107.968C483.886 104.301 484.969 100.4 485.271 96.3482H485.276Z" fill="black"/>
<mask id="mask0_326_45" style="mask-type:luminance" maskUnits="userSpaceOnUse" x="0" y="174" width="294" height="251">
<path d="M0 174.921H293.333V424.593H0V174.921Z" fill="white"/>
</mask>
<g mask="url(#mask0_326_45)">
<path d="M147.714 181.218C155.75 173.65 167.62 174.385 176.969 178.171C186.36 182.608 196.25 186.041 204.823 192.353C218.136 201.838 230.854 212.473 242.235 224.687C255.094 236.244 267.037 249.14 277.266 263.603C284.818 273.478 292.703 285.02 292.11 298.697C286.531 318.624 271.172 333.192 255.193 342.947C234.005 354.926 210.37 359.676 187.724 367.03C177.927 370.546 167.646 371.827 157.459 373.046C145.927 373.739 134.334 376.379 122.807 374.114C130.193 368.145 139.136 365.489 147.25 361.067C170.557 349.879 192.5 335.536 215.209 322.963C224.834 317.786 234.255 311.187 239.755 300.645C239.459 298.327 239.172 296.015 238.896 293.707C232.432 286.431 224.448 281.233 216.219 276.822C206.62 285.645 195.552 292.353 186.709 302.207C162.443 322.291 135.62 338.036 109.776 355.405C74.9845 377.145 42.0731 402.489 6.61995 422.947C4.55225 423.77 2.43766 424.411 0.270996 424.869C13.8856 408.379 29.7397 394.343 43.1408 377.624C62.4845 355.098 81.8283 332.556 102.011 310.947C123.328 288.129 144.042 264.64 163.797 240.14C155.464 231.577 144.709 223.687 142.177 210.551C139.766 200.619 141.182 188.89 147.714 181.218Z" fill="black"/>
</g>
</svg>
